PathFileType	4	(X/Y/Z)	C:\Users\Biomechanik\SynologyDrive\AlexP\Athlete_03\Athlete_3_25_03_31\Static_01\marker_experimental.trc
DataRate	CameraRate	NumFrames	NumMarkers	Units	OrigDataRate	OrigDataStartFrame	OrigNumFrames
200	200	4	80	mm	200	0	37
Frame#	Time	BL			BR			GLAB			RFHD			LFHD			C7			T6			SPINMOL			SPINM2			SPINM3			T12			BELTOL			BELT2			BELT3			SACROL			SACR2			SACR3			LASI			RASI			LPSI			RPSI			LTHOL			LTH2			LTH3			LKNEL			LKNEM			LFIB			LSHAOL			LSHA2			LSHA3			LMALL			LMALM			LHEE			LTOE			LM5			RTHOL			RTH2			RTH3			RKNEL			RKNEM			RFIB			RSHAOL			RSHA2			RSHA3			RMALL			RMALM			RHEE			RTOE			RM5			STRN			XIPH			LACR			LUAOL			LUA2			LUA3			LCUBL			LCUBM			LLAOL			LLA2			LLA3			LWRR			LWRU			RACR			RUAOL			RUA2			RUA3			RCUBL			RCUBM			RLAOL			RLA2			RLA3			RWRR			RWRU			*73			LKJCWK			RKJCWK			RAJCWK			LAJCWK			RHJCWK			LHJCWK
		X1	Y1	Z1	X2	Y2	Z2	X3	Y3	Z3	X4	Y4	Z4	X5	Y5	Z5	X6	Y6	Z6	X7	Y7	Z7	X8	Y8	Z8	X9	Y9	Z9	X10	Y10	Z10	X11	Y11	Z11	X12	Y12	Z12	X13	Y13	Z13	X14	Y14	Z14	X15	Y15	Z15	X16	Y16	Z16	X17	Y17	Z17	X18	Y18	Z18	X19	Y19	Z19	X20	Y20	Z20	X21	Y21	Z21	X22	Y22	Z22	X23	Y23	Z23	X24	Y24	Z24	X25	Y25	Z25	X26	Y26	Z26	X27	Y27	Z27	X28	Y28	Z28	X29	Y29	Z29	X30	Y30	Z30	X31	Y31	Z31	X32	Y32	Z32	X33	Y33	Z33	X34	Y34	Z34	X35	Y35	Z35	X36	Y36	Z36	X37	Y37	Z37	X38	Y38	Z38	X39	Y39	Z39	X40	Y40	Z40	X41	Y41	Z41	X42	Y42	Z42	X43	Y43	Z43	X44	Y44	Z44	X45	Y45	Z45	X46	Y46	Z46	X47	Y47	Z47	X48	Y48	Z48	X49	Y49	Z49	X50	Y50	Z50	X51	Y51	Z51	X52	Y52	Z52	X53	Y53	Z53	X54	Y54	Z54	X55	Y55	Z55	X56	Y56	Z56	X57	Y57	Z57	X58	Y58	Z58	X59	Y59	Z59	X60	Y60	Z60	X61	Y61	Z61	X62	Y62	Z62	X63	Y63	Z63	X64	Y64	Z64	X65	Y65	Z65	X66	Y66	Z66	X67	Y67	Z67	X68	Y68	Z68	X69	Y69	Z69	X70	Y70	Z70	X71	Y71	Z71	X72	Y72	Z72	X73	Y73	Z73	X74	Y74	Z74	X75 	Y75 	Z75 	X76 	Y76 	Z76 	X77 	Y77 	Z77 	X78 	Y78 	Z78 	X79 	Y79 	Z79 	X80 	Y80 	Z80

1	0	960.718	36.187	-1933.6732	1063.2034	33.0208	86.6866	353.3018	1606.5183	-1193.8571	302.0399	1632.5399	-1131.7097	312.1339	1631.8496	-1267.9054	130.7647	1438.5533	-1211.3943	91.2333	1266.4194	-1220.3569	89.4004	1229.439	-1242.2689	83.5856	1220.4709	-1192.8102	96.8251	1165.007	-1227.1631	113.4598	1101.4222	-1223.8579	85.7753	1080.1327	-1238.4706	85.0649	1076.9562	-1188.1375	79.0195	1017.3403	-1218.0444	95.474	957.6847	-1242.1796	95.9161	955.639	-1190.8431	77.7666	898.2089	-1218.1997	326.8118	936.1594	-1332.9994	317.1637	927.6464	-1085.8992	108.2324	975.1857	-1260.907	108.1758	966.4047	-1176.4973	188.9454	682.8096	-1402.7687	140.0724	629.0259	-1369.9045	186.407	622.8459	-1388.6498	236.01	487.5552	-1384.9747	257.3057	464.432	-1262.2402	193.6183	425.2701	-1389.7103	159.7259	328.0942	-1404.8124	110.2872	266.7999	-1391.6962	159.4274	266.3281	-1402.8225	142.6291	81.144	-1381.7311	183.4502	89.7043	-1295.8414	94.8651	67.1899	-1318.4359	309.8479	47.7522	-1348.6442	253.0249	31.2687	-1443.6876	154.9459	696.2493	-1026.7979	205.9339	638.2988	-1006.3561	162.8743	635.0602	-1031.6465	198.3741	496.6786	-1027.2257	237.0802	464.5838	-1148.6112	152.0659	432.5935	-1029.835	118.0312	346.5507	-1020.1679	147.9218	275.5855	-1004.3938	106.6776	286.0764	-1030.2874	124.7581	85.0036	-1041.7996	188.7758	95.6421	-1114.639	90.5972	63.2768	-1115.0262	292.6642	47.7107	-1043.8491	216.4665	39.4586	-964.3185	313.6836	1366.9004	-1205.7812	345.5246	1221.3636	-1206.5422	192.3167	1434.7136	-1357.3783	159.7357	1408.7188	-1496.3838	149.1687	1382.7587	-1556.4189	192.9191	1410.9631	-1553.286	174.2246	1398.1316	-1660.9918	247.6776	1307.9108	-1658.0619	173.1427	1372.0741	-1751.1368	166.6073	1312.3981	-1803.6584	178.438	1360.818	-1812.0471	191.8782	1351.0446	-1916.3228	271.2264	1347.9016	-1908.3351	191.5273	1430.8414	-1066.4725	148.5845	1413.5869	-943.6995	166.1874	1411.2432	-880.0013	119.7497	1391.2916	-889.9304	142.1309	1394.031	-775.1886	198.8428	1298.7207	-774.9622	130.8453	1374.5516	-676.118	147.0389	1416.818	-610.4703	130.3087	1369.295	-613.8226	141.9119	1381.6198	-521.3123	220.4146	1356.6617	-509.3397	nan	nan	nan	246.6578	475.9936	-1323.6075	217.7271	480.6312	-1087.9185	155.1211	79.7845	-1077.9574	160.7819	74.8788	-1339.1961	259.4139	851.864	-1125.5759	266.3509	857.9849	-1303.242
2	0.005	960.7202	36.1751	-1933.6815	1063.1987	33.0189	86.6843	353.1599	1606.5571	-1194.1229	302.1438	1632.5211	-1131.6384	312.2392	1631.8296	-1267.8541	130.8284	1438.5603	-1211.354	nan	nan	nan	89.4522	1229.4379	-1242.2501	83.6379	1220.4679	-1192.788	96.8894	1165.0054	-1227.1405	113.4902	1101.439	-1223.8497	85.7964	1080.1464	-1238.464	85.092	1076.9695	-1188.125	79.0778	1017.3548	-1218.01	95.5206	957.6968	-1242.1711	95.956	955.6642	-1190.8448	77.791	898.2299	-1218.1877	326.8402	936.1463	-1332.9844	317.1648	927.6489	-1085.9272	108.2647	975.2109	-1260.8977	108.2048	966.4292	-1176.4882	188.9594	682.8126	-1402.7777	140.0782	629.0269	-1369.8939	186.4169	622.8415	-1388.6392	236.0198	487.544	-1384.9675	257.3886	464.3834	-1262.1934	193.6285	425.2635	-1389.6952	159.7249	328.0978	-1404.8215	110.327	266.7765	-1391.6686	159.4274	266.3284	-1402.8167	142.6298	81.1341	-1381.7305	183.4511	89.7094	-1295.8417	94.8615	67.1933	-1318.4349	309.8378	47.7526	-1348.6439	253.0296	31.2604	-1443.6726	154.9646	696.2532	-1026.8103	205.9357	638.2985	-1006.3607	162.875	635.0627	-1031.6498	198.3724	496.6873	-1027.2272	237.0812	464.5844	-1148.6089	152.0585	432.5922	-1029.8425	118.0226	346.5535	-1020.1689	147.9044	275.5966	-1004.3934	106.6744	286.0799	-1030.2841	124.7591	85.0043	-1041.7965	188.784	95.6458	-1114.6514	90.5899	63.2868	-1115.0485	292.6722	47.7042	-1043.8572	216.4581	39.4502	-964.3265	313.728	1366.8916	-1205.7573	345.5703	1221.3511	-1206.5232	192.354	1434.7195	-1357.3527	159.7763	1408.7296	-1496.3578	148.9631	1382.5443	-1556.4418	192.9622	1410.9655	-1553.2539	174.2504	1398.1628	-1660.9517	247.7036	1307.951	-1658.041	173.1597	1372.1238	-1751.0947	166.5947	1312.4612	-1803.6495	178.4584	1360.87	-1812.024	191.8781	1351.1079	-1916.2969	271.228	1347.9484	-1908.3054	191.5905	1430.8311	-1066.4376	148.6423	1413.5623	-943.6697	166.2403	1411.2324	-879.9598	119.8079	1391.2726	-889.9177	142.1891	1394.005	-775.1651	198.8786	1298.6947	-774.9504	130.8895	1374.5298	-676.0901	147.0745	1416.785	-610.4316	130.3509	1369.2524	-613.8051	141.9671	1381.5952	-521.3052	220.4493	1356.6204	-509.3044	91.2812	1266.4215	-1220.3319	246.7042	475.9637	-1323.5804	217.7268	480.6359	-1087.918	155.1258	79.7867	-1077.9622	160.7815	74.8767	-1339.1966	259.4066	851.8729	-1125.5854	266.3644	857.9836	-1303.251
3	0.01	960.7274	36.1685	-1933.6812	1063.2043	33.0076	86.6815	353.2344	1606.5142	-1194.0535	302.2247	1632.4741	-1131.583	312.3343	1631.7921	-1267.7946	130.8552	1438.5688	-1211.3268	nan	nan	nan	89.4947	1229.4373	-1242.231	83.6691	1220.4817	-1192.7656	96.9414	1165.0038	-1227.1256	113.5501	1101.4404	-1223.8276	85.8637	1080.1512	-1238.45	85.1478	1076.9863	-1188.114	79.1131	1017.3604	-1217.9839	95.5537	957.722	-1242.1633	95.9911	955.6753	-1190.8256	77.804	898.2537	-1218.176	326.8768	936.1348	-1332.9775	317.2036	927.6237	-1085.9038	108.2964	975.2265	-1260.8966	108.242	966.4505	-1176.4784	189.1055	682.8512	-1402.4376	140.0941	629.035	-1369.8967	186.428	622.8487	-1388.6351	236.0201	487.5413	-1384.9647	257.2733	464.3423	-1262.2737	193.628	425.2609	-1389.6923	159.731	328.0915	-1404.8109	110.3023	266.7861	-1391.6901	159.4332	266.321	-1402.816	142.6359	81.1407	-1381.7323	183.4529	89.7021	-1295.8456	94.8562	67.1909	-1318.4362	309.8395	47.7496	-1348.6479	253.047	31.2468	-1443.6882	154.9585	696.2656	-1026.8075	205.9417	638.2977	-1006.3635	162.8749	635.0759	-1031.6464	198.3552	496.6926	-1027.22	237.0704	464.5772	-1148.6163	152.049	432.5985	-1029.8409	118.0176	346.5517	-1020.177	147.9046	275.5824	-1004.4121	106.6686	286.0861	-1030.287	124.758	84.9969	-1041.8025	188.7834	95.6214	-1114.6456	90.5767	63.2846	-1115.0499	292.6606	47.705	-1043.8595	216.4595	39.4518	-964.3231	313.7649	1366.8983	-1205.7369	345.6116	1221.3496	-1206.5101	192.3984	1434.7194	-1357.3154	159.8044	1408.7521	-1496.3065	149.2274	1382.811	-1556.3704	192.9913	1410.9811	-1553.2128	174.2983	1398.1976	-1660.9152	247.7192	1307.9739	-1658.0227	173.8935	1372.0919	-1750.6376	166.6075	1312.5035	-1803.6216	178.4699	1360.9254	-1811.9891	191.8837	1351.1792	-1916.2753	271.2349	1347.9995	-1908.2788	191.6286	1430.8237	-1066.3977	148.6893	1413.5455	-943.6407	166.2969	1411.2141	-879.9351	119.8411	1391.2653	-889.839	142.235	1393.985	-775.1296	198.9425	1298.6655	-774.927	130.9446	1374.4971	-676.0658	147.1263	1416.7485	-610.4086	130.3986	1369.2174	-613.7691	142.0121	1381.5542	-521.2677	220.4888	1356.5604	-509.2743	91.3402	1266.4259	-1220.3005	246.6467	475.9418	-1323.6192	217.7128	480.6349	-1087.9182	155.1253	79.7707	-1077.9623	160.7868	74.876	-1339.1986	259.433	851.8595	-1125.5739	266.3888	857.9797	-1303.239
4	0.015	960.7238	36.1737	-1933.6866	1063.1976	33.0141	86.684	353.3158	1606.4635	-1193.9973	302.331	1632.4419	-1131.5286	311.9674	1631.5939	-1267.036	130.9181	1438.5682	-1211.2872	nan	nan	nan	89.5482	1229.4451	-1242.2117	83.717	1220.4674	-1192.7413	96.9914	1165.0022	-1227.1061	113.5918	1101.4476	-1223.8137	85.8913	1080.1743	-1238.4487	85.1799	1076.9895	-1188.1039	79.1305	1017.4009	-1218.0084	95.6039	957.7394	-1242.1484	96.0426	955.6939	-1190.8263	77.86	898.2651	-1218.1653	326.9153	936.1204	-1332.972	317.2265	927.6249	-1085.9023	108.3219	975.2571	-1260.8975	108.2721	966.4684	-1176.4738	189.1109	682.8583	-1402.4318	140.1034	629.0413	-1369.8883	186.4394	622.8425	-1388.6279	236.0181	487.5466	-1384.9635	257.3463	464.302	-1262.2252	193.6337	425.2625	-1389.687	159.7336	328.0984	-1404.8099	110.3111	266.7769	-1391.6799	159.4346	266.315	-1402.8164	142.6272	81.1462	-1381.7384	183.4477	89.7079	-1295.8495	94.8584	67.1916	-1318.4354	309.8358	47.7517	-1348.6462	253.0226	31.2603	-1443.6891	154.9762	696.2648	-1026.8131	205.9503	638.2979	-1006.3672	162.8875	635.071	-1031.6422	198.366	496.6917	-1027.2294	237.0733	464.5663	-1148.6193	152.0434	432.5995	-1029.8477	118.0108	346.5565	-1020.1733	147.9006	275.5941	-1004.3899	106.6627	286.0833	-1030.2876	124.7505	85.0028	-1041.7965	188.7714	95.6502	-1114.6454	90.5778	63.2866	-1115.0256	292.6622	47.694	-1043.8608	216.4559	39.4582	-964.3216	313.8092	1366.8899	-1205.7147	345.6484	1221.3362	-1206.5045	192.4489	1434.7174	-1357.2827	159.8654	1408.7728	-1496.2694	149.0089	1382.5823	-1556.3918	193.0326	1411.0022	-1553.192	174.1724	1398.3116	-1660.837	247.7433	1308.0173	-1658.0056	173.1892	1372.2206	-1751.0399	166.6229	1312.5529	-1803.5846	178.4896	1360.9698	-1811.942	191.8939	1351.2405	-1916.2465	271.2487	1348.0594	-1908.2599	191.6888	1430.8082	-1066.3582	148.7443	1413.5177	-943.5995	166.3341	1411.1819	-879.8947	119.9408	1391.1953	-889.8904	142.2994	1393.9657	-775.1027	198.9948	1298.6528	-774.9008	130.9976	1374.4705	-676.041	147.1823	1416.7253	-610.368	130.4513	1369.1895	-613.7403	142.0633	1381.5363	-521.2462	220.5239	1356.515	-509.2385	91.3786	1266.4254	-1220.2877	246.6822	475.9243	-1323.5944	217.7197	480.629	-1087.9243	155.115	79.7882	-1077.959	160.7787	74.8819	-1339.2044	259.4474	851.8666	-1125.5695	266.4145	857.9756	-1303.235
